<svg id="line_color" height="512" viewBox="0 0 74 74" width="512" xmlns="http://www.w3.org/2000/svg" data-name="line color"><path d="m9.605 19.37h56.04v30.58h-56.04z" fill="#89c5cd"/><path d="m62.812 19.37h2.833v30.58h-2.833z" fill="#6eaaad"/><path d="m65.645 13.47v5.9h-56.04v-5.9a3.64 3.64 0 0 1 3.64-3.64h48.76a3.64 3.64 0 0 1 3.64 3.64z" fill="#e1e6e9"/><path d="m62.005 9.83h-2.38v.045a3.629 3.629 0 0 1 3.19 3.6v5.9h2.83v-5.9a3.64 3.64 0 0 0 -3.64-3.645z" fill="#d5d6db"/><path d="m15.914 15.1h-1.014a.5.5 0 0 1 0-1h1.013a.5.5 0 1 1 0 1z" fill="#323c6b"/><path d="m20.87 15.1h-1.012a.5.5 0 0 1 0-1h1.012a.5.5 0 0 1 0 1z" fill="#323c6b"/><path d="m25.827 15.1h-1.013a.5.5 0 0 1 0-1h1.013a.5.5 0 0 1 0 1z" fill="#323c6b"/><path d="m61.466 15.1h-28.957a.5.5 0 0 1 0-1h28.957a.5.5 0 0 1 0 1z" fill="#323c6b"/><path d="m65.646 49.952h-56.046l-5.548 8.314a2.511 2.511 0 0 0 2.088 3.905h62.97a2.511 2.511 0 0 0 2.09-3.905z" fill="#e1e6e9"/><path d="m69.105 62.17h-62.96a2.5 2.5 0 0 1 -2.13-3.83 2.455 2.455 0 0 0 2.13 1.19h60.412a1.272 1.272 0 0 0 1.06-1.974l-5.042-7.606h2.86s5.7 8.55 5.8 8.39a2.5 2.5 0 0 1 -2.13 3.83z" fill="#d5d6db"/><path d="m38.001 58.883h-7.683l1.493-3.258h6.19z" fill="#9297ab"/><path d="m38 59.383h-7.682a.5.5 0 0 1 -.454-.708l1.492-3.258a.5.5 0 0 1 .455-.292h6.189a.5.5 0 0 1 .5.5v3.258a.5.5 0 0 1 -.5.5zm-6.9-1h6.4v-2.258h-5.368z" fill="#323c6b"/><path d="m48.283 58.883h-7.683v-3.258h6.19z" fill="#9297ab"/><path d="m48.283 59.383h-7.683a.5.5 0 0 1 -.5-.5v-3.258a.5.5 0 0 1 .5-.5h6.19a.5.5 0 0 1 .454.292l1.493 3.257a.5.5 0 0 1 -.454.709zm-7.182-1h6.4l-1.035-2.258h-5.366z" fill="#323c6b"/><path d="m30.978 39.229h-15.478a7.329 7.329 0 0 1 1.555-4.92 6.094 6.094 0 0 1 3.932-1.945 3.464 3.464 0 0 0 4.5 0c4.013.548 5.491 3.412 5.491 6.865z" fill="#fcd462"/><path d="m30.979 39.729h-15.479a.5.5 0 0 1 -.5-.5 7.728 7.728 0 0 1 1.68-5.249 6.6 6.6 0 0 1 4.239-2.111.5.5 0 0 1 .394.115 3.041 3.041 0 0 0 3.852 0 .5.5 0 0 1 .392-.115c3.82.521 5.924 3.135 5.924 7.36a.5.5 0 0 1 -.502.5zm-14.97-1h14.458c-.112-2.442-1.095-5.232-4.837-5.838a4.061 4.061 0 0 1 -4.787 0 5.541 5.541 0 0 0 -3.412 1.746 6.475 6.475 0 0 0 -1.422 4.092z" fill="#323c6b"/><circle cx="23.234" cy="27.265" fill="#fcd462" r="3.625"/><g fill="#323c6b"><path d="m23.234 31.39a4.125 4.125 0 1 1 4.125-4.125 4.13 4.13 0 0 1 -4.125 4.125zm0-7.25a3.125 3.125 0 1 0 3.125 3.125 3.129 3.129 0 0 0 -3.125-3.125z"/><path d="m59.751 28.811h-22a.5.5 0 0 1 0-1h22a.5.5 0 0 1 0 1z"/><path d="m59.751 36.875h-22a.5.5 0 0 1 0-1h22a.5.5 0 1 1 0 1z"/><path d="m59.751 44.939h-43.711a.5.5 0 0 1 0-1h43.711a.5.5 0 0 1 0 1z"/><path d="m6.776 12.475a.476.476 0 0 1 -.112-.013.5.5 0 0 1 -.375-.6 7.11 7.11 0 0 1 6.96-5.533h.259a.5.5 0 0 1 0 1h-.259a6.191 6.191 0 0 0 -5.985 4.758.5.5 0 0 1 -.488.388z"/><path d="m16.992 7.329h-.8a.5.5 0 0 1 0-1h.8a.5.5 0 0 1 0 1z"/><path d="m52.666 65.671h-.541a.5.5 0 0 1 0-1h.541a.5.5 0 0 1 0 1z"/><path d="m63.458 65.671h-8.333a.5.5 0 0 1 0-1h8.333a.5.5 0 1 1 0 1z"/><path d="m65.645 19.87h-56.04a.5.5 0 0 1 -.5-.5v-5.9a4.145 4.145 0 0 1 4.14-4.14h48.76a4.145 4.145 0 0 1 4.14 4.14v5.9a.5.5 0 0 1 -.5.5zm-55.54-1h55.04v-5.4a3.143 3.143 0 0 0 -3.14-3.14h-48.76a3.143 3.143 0 0 0 -3.14 3.14z"/><path d="m69.109 62.671h-62.968a3.01 3.01 0 0 1 -2.5-4.683l5.552-8.314a.5.5 0 0 1 .416-.222h56.037a.5.5 0 0 1 .416.222l5.552 8.314a3.01 3.01 0 0 1 -2.505 4.683zm-59.237-12.219-5.4 8.091a2.01 2.01 0 0 0 1.673 3.128h62.964a2.01 2.01 0 0 0 1.673-3.128l-5.4-8.091z"/><path d="m65.645 50.45h-56.04a.5.5 0 0 1 -.5-.5v-30.58a.5.5 0 0 1 .5-.5h56.04a.5.5 0 0 1 .5.5v30.58a.5.5 0 0 1 -.5.5zm-55.54-1h55.04v-29.58h-55.04z"/></g><path d="m37.334 47.917h-.541a.65.65 0 0 1 0-1.3h.541a.65.65 0 1 1 0 1.3z" fill="#fff"/><path d="m34.159 47.917h-8.909a.65.65 0 0 1 0-1.3h8.909a.65.65 0 1 1 0 1.3z" fill="#fff"/></svg>