<?xml version="1.0" encoding="iso-8859-1"?>
<!-- Generator: Adobe Illustrator 19.0.0, SVG Export Plug-In . SVG Version: 6.00 Build 0)  -->
<svg version="1.1" id="Capa_1" xmlns="http://www.w3.org/2000/svg" xmlns:xlink="http://www.w3.org/1999/xlink" x="0px" y="0px"
	 viewBox="0 0 512 512" style="enable-background:new 0 0 512 512;" xml:space="preserve">
<g>
	<g>
		<g>
			<path d="M458.667,223.999H416c-5.891,0-10.667,4.776-10.667,10.667v21.333h-32v-71.531L508.875,48.927
				c4.164-4.165,4.164-10.917,0-15.083l-30.72-30.72c-4.165-4.164-10.917-4.164-15.083,0l-89.739,89.739V74.666
				c0-17.673-14.327-32-32-32H57.749L18.208,3.124c-2-1.999-4.711-3.122-7.539-3.123C4.778,0,0.001,4.774,0,10.666v256
				c0,5.891,4.776,10.667,10.667,10.667h74.667v64c0,5.891,4.776,10.667,10.667,10.667h309.333v149.333
				c0,5.891,4.776,10.667,10.667,10.667h85.333c5.891,0,10.667-4.776,10.667-10.667v-224
				C511.965,247.892,488.107,224.034,458.667,223.999z M470.613,25.748l15.637,15.637L347.733,179.903l-15.637-15.637
				L470.613,25.748z M341.333,63.999c5.891,0,10.667,4.776,10.667,10.667v39.531l-42.528,42.528
				c-1.537,1.538-2.503,3.429-2.905,5.411l-0.018-0.004l-5.965,29.867h-55.251v21.333h64c0.791,0,1.57-0.097,2.33-0.267
				l38.126-7.615c0.763-0.15,1.502-0.388,2.211-0.698v51.247h-80.917l-192-192H341.333z M21.333,36.415l219.584,219.584H96H21.333
				V36.415z M373.333,330.666v-21.333H352v21.333h-21.333v-21.333h-21.333v21.333H288v-21.333h-21.333v21.333h-21.333v-21.333H224
				v21.333h-21.333v-21.333h-21.333v21.333H160v-21.333h-21.333v21.333h-32v-53.333h160h138.667v53.333H373.333z M490.667,490.666
				h-64V341.332v-74.667v-21.333h32c17.673,0,32,14.327,32,32V490.666z"/>
			<circle cx="458.667" cy="447.999" r="21.333"/>
			<path d="M146.206,231.542c4.166-4.165,4.167-10.919,0.002-15.085l-85.333-85.333c-2-1.999-4.711-3.122-7.539-3.123
				c-5.891-0.001-10.668,4.773-10.669,10.664v85.333c0,5.891,4.776,10.667,10.667,10.667h85.333
				C141.494,234.665,144.206,233.542,146.206,231.542z M64,213.332v-48.917l48.917,48.917H64z"/>
			<path d="M352,479.999c0,5.891-4.776,10.667-10.667,10.667H32c-5.891,0-10.667-4.776-10.667-10.667V298.666H0v181.333
				c0,17.673,14.327,32,32,32h309.333c17.673,0,32-14.327,32-32V373.332H352V479.999z"/>
			<path d="M42.667,415.999v42.667c0,5.891,4.776,10.667,10.667,10.667H96v-21.333H64v-32H42.667z"/>
			<rect x="117.333" y="447.999" width="21.333" height="21.333"/>
		</g>
	</g>
</g>
<g>
</g>
<g>
</g>
<g>
</g>
<g>
</g>
<g>
</g>
<g>
</g>
<g>
</g>
<g>
</g>
<g>
</g>
<g>
</g>
<g>
</g>
<g>
</g>
<g>
</g>
<g>
</g>
<g>
</g>
</svg>
